<?xml version="1.0"?>
<svg xmlns:rdf="http://www.w3.org/1999/02/22-rdf-syntax-ns#" xmlns="http://www.w3.org/2000/svg" xmlns:cc="http://web.resource.org/cc/" xmlns:xlink="http://www.w3.org/1999/xlink" xmlns:dc="http://purl.org/dc/elements/1.1/" xmlns:svg="http://www.w3.org/2000/svg" id="Layer_1" xml:space="preserve" viewBox="0 0 154.323 257.432" version="1.1" x="0px" y="0px" enable-background="new 0 0 154.323 257.432">
<path clip-rule="evenodd" d="m124.88 81.667c-7.701-5.618-19.686-9.857-30.387-7.597-19.102 4.035-7.053 31.677-11.397 45.582-1.821-15.084-2.6-27.405 0-41.784 5.649-8.427 19.662-6.249 32.289-5.697 1.95 4.394 8.36 4.313 9.5 9.498z" fill-rule="evenodd"/>
<path clip-rule="evenodd" d="m85.951 145.29c-5.984-2.669-12.206 0.532-17.094 1.9 1.739-5.7 14.373-7.66 17.094-1.9z" fill-rule="evenodd"/>
<path clip-rule="evenodd" d="m106.84 7.597c1.1 3.332 3.735 5.126 3.799 9.496 5.383-1.449 11.854 0.468 14.243 4.748 0.619 4.101-1.64 5.324-2.849 7.598 6.373 7.875 17.1 16.449 14.245 30.387 2.62 4.343 10.368 6.827 11.395 16.144 0.796 7.232-4.051 14.302-2.848 20.891 1.396 7.657 9.824 11.998 6.646 19.942-1.693 4.232-8.607 4.876-9.497 8.548-1.125 7.938 6.762 12.232 4.748 18.992-1.592 5.351-7.265 4.118-12.346 7.596-2.1 4.879 4.704 2.91 1.901 5.698-9.497 2.594-8.312-11.815-2.851-16.145-3.469-5.074-9.495-7.596-9.495-16.142-6.271 7.605-3.68 19.336-3.799 30.387-0.097 8.978-2.29 17.98-1.899 26.59 0.274 6.054 0.776 12.699 0.951 18.993 10.781 7.26 25.836 10.247 35.135 18.992-5.584 11.51-9.577 24.609-15.194 36.085-34.155 2.09-78.542 0.625-128.2-0.95-1.602-11.433-9.412-21.531-7.597-33.235 4.306 7.896 9.181 19.703 9.496 28.487 16.242 3.941 35.286 2.849 54.128 2.849 24.29 0 49.149 3.305 69.323 0 5.664-9.845 9.253-21.768 14.243-32.287-9.309-6.833-20.261-12.025-32.287-16.142-2.284 0.881 0.574 6.904-3.799 5.696 1.042-25.271 1.86-48.269 1.899-71.223-6.752 11.29-16.771 19.316-26.588 27.541-27.183 3.985-39.054-11.081-49.381-26.59-1.545 21.771 1.208 43.326 0 64.575-11.629-2.084-24.089 9.6-35.136 14.242 6.313-11.097 21.678-13.141 33.236-18.992-3.404-17.226-0.912-39.453-0.949-57.926-0.031-14.837-8.253-27.255-5.698-41.784-2.042-2.932-4.356-7.714-2.849-11.396-7.937 8.654 4.268 19.401 1.899 30.388-1.086 5.037-6.835 7.426-6.647 12.345 0.162 4.214 4.608 6.558 5.697 9.495-0.256 7.707-7.089 12.665-15.193 9.498 0.095-4.02 3.112-5.117 5.697-6.647-1.735-3.33-6.532-3.599-9.497-5.698-3.889-7.829 0.543-17.468 5.699-21.842-2.808-7.252-14.149-6.979-16.145-15.193-2.371-9.761 4.422-16.015 10.446-21.841-1.182-25.28 14.257-33.898 27.548-44.663-1.761-6.493-7.622-11.708-5.697-18.993 4.041-4.505 14.553-2.54 17.093-8.546 3.765 0.351 9.1-0.87 11.396 0.95 3.517-5.628 6.632-6.938 12.346-6.647 2.178 0.11 5.184 3.847 5.696 3.798 2.38-0.226 5.961-3.195 6.648-5.698 3.58 3.065 11.746 1.549 12.346 7.597 4.703 0.104 4.663-0.932 8.543 0zm13.3 19.942c-4.412-0.801-7.213-5.605-12.345-2.849 0.81 4.133 9.99 6.061 12.34 2.849zm-16.15-2.849c3.169 0.954 3.114-1.318 2.85-3.798-5.01-0.406-3.593 2.006-4.747 3.798-10.085-3.319-32.827-7.308-41.785 0 23.707-6.468 56.238 1.433 64.574 21.841 1.433 2.365 1.357 6.238 4.747 6.647 1.795-0.71 0.659-2.834 2.851-0.95-1.354-9.093-4.994-15.897-12.346-18.992 0.492 5.541 8.981 8.088 6.647 13.295-4.95-9.923-13.53-16.216-22.79-21.841zm-38.931-14.244c2.728 2.02 9.47 0.025 12.345 1.898v-5.697c-3.006-2.635-14.012-3.734-12.345 3.799zm16.144 2.848c3.402-3.876 15.856 1.297 14.243-7.597-6.685-2.538-16.982-0.215-14.243 7.597zm-31.339 0.95c2.789-1.959 10.531 1.035 11.396-2.848-1.706-2.74-13.378-3.86-11.396 2.848zm47.481 0.949c4.196 0.081 8.414 0.184 8.547-3.798-1.84-3.156-9.674-1.642-8.545 3.798zm-18.992 3.799c0.973-7.621-9.243-4.052-13.294-6.648-0.188 6.835 10.138 3.157 13.294 6.648zm1.899-0.95c2.951-0.174 14.463 0.736 15.193-4.749-2.891-0.019-15.719-1.808-15.193 4.749zm-43.682 0.95c4.687-1.547 7.896 1.156 10.445-1.899-1.74-3.386-10.168-3.719-10.445 1.899zm12.345-0.95c4.322-0.743 9.601-0.53 12.345-2.849-4.748 0.317-11.122-0.991-12.345 2.849zm47.48 1.9c3.884 2.179 10.509 0.063 11.396-3.799-2.65-0.94-10.272 0.17-11.395 3.799zm-46.531 1.898c4.471 2.211 12.383 0.618 14.245-2.848-3.734-1.473-12.912-1.145-14.245 2.848zm20.892-3.798c-1.421 0.162-3.505-0.339-3.799 0.95 1.263 1.233 3.534 1.252 3.799-0.95zm20.891 0.95c-7.046-0.329 2.307 2.726 2.851 0-1.357-0.37-1.603-1.14-2.851 0zm17.093 3.799c4.758-3.785 9.555 5.927 13.296 0-0.8-4.162-13.1-6.403-13.3 0zm-72.17-1.899c1.002 5.775 7.856-0.87 11.395 1.899-0.593-5.903-6.669-0.424-11.395-1.899zm0.95 3.798c0.42 5.73 7.786 1.541 9.495 0-2.78-1.255-4.901 0.606-9.495 0zm36.085 0.949c3.378-0.803 5.69 2.75 6.647-0.949-2.072-0.504-6.142-2.298-6.647 0.949zm-26.59 1.9c-3.121 0.677-7.146 0.45-7.597 3.798 4.529 0.73 6.257-1.341 7.597-3.798zm-3.798 6.647c4.923-2.99 10.366-5.461 14.244-9.496-5.787 2.126-11.313 4.513-14.244 9.496zm36.084-4.748c3.402-1.347 9.293-0.204 12.346-1.9 0.052-1.633-0.73-2.434-1.897-2.849-3.863 3.508-8.352-1.415-10.449 4.749zm-8.545 0.95c-1.954 2.326 3.439 5.381 7.597 4.748 0.75-4.865-4.94-3.29-7.597-4.748zm7.597 0.949v-2.848c-2.864-1.251-5.163-3.068-9.496-2.85 0.345 4.72 5.678 4.451 9.496 5.698zm-19.942-1.899h8.547c0.626-4.688-8.645-3.223-8.547 0zm50.329 18.993c7.332 7.331 16.946 12.389 20.892 20.891 3.315 7.136-1.139 16.521 0 23.741 1.481 9.36 9.637 10.178 15.196 17.093 1.067 3.663-1.707 8.339 0 9.496 3.052-2.501 4.287-3.093 4.747-6.647 1.205-9.313-11.829-10.894-13.294-18.992 2.774 0.707 1.838 5.125 5.696 4.748 0.508-3.673-1.695-4.635-0.948-8.546 11.314-25.621-17.638-30.375-22.792-48.431-6.567-3.252-12.633-12.046-22.791-8.546 3.722 2.119 6.792 0.919 10.446 2.849 6.19 3.27 9.239 11.573 14.244 17.093 7.725 8.517 15.646 11.86 17.094 23.741 0.492 4.033 0.766 14.012-1.9 16.143-0.783-3.609-1.223-6.803 0.951-9.496-1.582-5.146-1.807-14.553-5.698-19.942-2.678-3.707-10.133-7.611-13.296-11.396-7.649-9.156-11.889-16.02-20.892-17.093-4.502-0.537-7.084 2.904-10.444 0 4.191-1.349 3.224-2.292 5.696-5.697-4.891 0.171-11.222-1.095-11.395 3.798 2.961-0.816 4.087-2.78 6.646 0-2.517 0.015-5.591-0.527-5.696 1.899h3.797c-2.048 3.806 3.196 5.424 5.699 8.546 3.657 4.565 5.521 12.958 10.445 11.396-3.539-4.701-7.984-13.527-9.497-17.093 6.813 5.531 9.037 15.654 15.195 21.84 11.937 1.673 16.112 11.109 21.841 18.993 2.057-14.172-11.663-18.005-18.042-22.791-2.159-1.619-3.783-4.127-5.7-6.647-3.68-4.844-6.645-9.285-10.443-13.295 5.763 1.317 9.403 7.502 14.243 12.34zm29.44 80.719c0.146-6.818-0.563-14.493 0.95-19.942-3.848-3.432-6.123-8.438-10.445-11.396 0.175 5.487 2.524 10.382 4.747 16.144-2.012 6.559-4.021 10.592-1.897 16.144 2.241 5.863 13.897 8.231 9.496 16.144 7.13-4.12-0.79-13.19-2.85-17.09zm-71.222-95.914c0.421-4.853-6.717-2.146-10.445-2.848-0.423 4.852 6.716 2.146 10.445 2.848zm50.332-0.949h1.901v-1.898h-1.901v1.898zm-64.577 0.949c-0.737 0.212-1.874 0.027-1.899 0.95h4.749c0.703-2.105-3.5-3.912-3.799-1.899 0.579 0.054 1.124 0.141 0.949 0.949zm1.9 2.849c-2.469 0.38-2.864 2.833-5.698 2.849-2.199 11.909-19.329 13.339-21.84 24.689-1.056 4.768 2.024 8.796 0.949 16.144-3.993 6.812-10.435 12.665-9.495 21.841 0.593 5.803 6.891 9.937 6.647 16.143-0.723 3.643-7.949 7.318-7.597 12.346 0.15 2.139 4.146 7.724 5.698 4.748-1.308-1.223-0.94-4.125-0.95-6.647 1.858-4.061 4.011-6.078 4.749-9.497 1.808-8.388-3.907-17.561-2.849-25.639 0.782-5.973 6.674-11.356 7.597-17.093 0.508-3.157-1.418-6.303-0.95-9.496 0.94-6.406 6.341-8.135 9.496-11.396 3.664-3.785 5.884-9.571 9.496-13.295 2.357-2.43 5.712-2.293 6.648-5.697-0.635 0.001-1.268 0.001-1.901 0.001zm-13.295 26.589c14.77 2.369 18.739-14.14 24.689-23.74 1.086-0.38 6.286-2.834 1.899-2.849-11.634 6.092-14.472 20.978-26.588 26.589zm37.035-24.689c-9.423-5.69-15.938 9.573-18.993 18.992 9.464-2.564 7.864-16.194 17.093-18.992-3.897 5.282-6.689 11.67-10.446 17.093 2.427 1.023 3.325-4.089 4.749-0.95-3.023 3.625-7.969 5.325-14.244 5.697-4.781 5.47-10.437 5.167-18.043 6.648-1.728 4.286-4.792 7.237-4.748 13.294 6.626-6.71 33.409-14.949 40.834-1.9 2.476 4.354 1.36 11.901 0.95 16.145-0.858 8.849 1.475 19.363-0.95 26.589 5.3 4.992 15.464-1.056 14.243-5.697 1.647 1.518 2.057 4.274 1.9 7.597-2.275 2.694-3.498 0.938-7.599 0.95-2.088 2.341-2.119 6.743-5.696 7.597 6.971-1.707 9.735 2.27 15.193-0.95 0.703 2.219 0.659 5.351-0.95 7.597-1.354-0.228-1.6-1.563-2.849-1.901-1.498 9.906-24.245 3.829-20.892-2.846-2.376-1.256-2.972 3.753-3.798 0.948 0.014-2.519-0.527-5.592 1.898-5.698 2.32 0.53 2.024 3.673 5.699 2.849 3.692-4.511 7.107-0.523 8.546-4.749-1.31-3.438-7.013-2.483-11.396-2.848-2.643-1.717-3.038-9.954 0.95-10.446 0.464 2.997-1.711 3.354-0.95 6.647 2.923-0.665 1.825-0.665 4.749 0-3.23-15.783 2.287-27.917-1.899-41.784-11.726-7.841-30.408-3.4-38.935 4.749-0.039 22.672 2.335 41.456 9.496 55.078 2.434 4.629 5.439 10.788 7.597 13.295 4.644 5.395 14.371 11.916 19.942 13.294 14.145 3.499 22.142-2.216 29.438-8.547 8.651-7.507 11.377-11.853 17.093-21.841 2.404-4.199 5.212-8.727 6.647-12.345 3.479-8.773-0.479-17.095 0.95-26.589 0.765-5.086 4.287-9.383 2.849-15.194-6.346-16.128-26.176-18.773-39.885-27.539-2.703-4.576-2.744-11.815-7.598-14.244 2.239 5.068-3.38 6.89-3.796 7.597-1.382 2.338-0.375 7.726-3.799 5.697 2.777-3.853 5.47-7.807 6.641-13.283zm18.042 17.093c-5.667-2.563-4.986-11.474-11.395-13.295 1.351 6.259 6.016 14.226 11.395 13.295zm-50.329-4.749c-4.414 4.88-11.494 10.727-11.396 16.144 10.68-7.996 20.037-17.315 26.59-29.438-6.246 2.135-10.702 8.328-15.194 13.294zm-10.445-5.697c-2.462 2.571-3.564 6.294-5.698 8.546-0.405 0.428-2.298-0.268-2.848 0-1.179 0.574-4.426 5.604-4.749 6.647-1.488 4.808 0.976 11.484 0 16.144-1.814 8.664-15.184 17.835-5.697 27.539-1.931-17.65 15.577-21.49 6.647-37.985 3.673-11.838 16.088-14.932 20.892-25.64 1.457-0.228 0.139-1.563-0.95-1.898-1.935 1.99-4.56 3.472-7.597 6.645zm-11.396 7.597c3.627 0.462 2.972-3.358 4.748-4.748 4.128 0.294 7.727-4.888 6.648-6.648-4.347 3.251-9.214 5.981-11.396 11.396zm-10.446 28.488c-4.735 7.342-8.754 11.729-6.647 20.892 1.744 7.583 10.86 8.211 11.396 14.244 0.731 8.251-10.129 8.48-6.648 18.993 1.999 2.463 7.085 6.806 10.446 4.747-3.062-3.269-6.387-6.271-6.647-12.344 1.626-4.191 5.39-5.115 5.698-9.497 0.558-7.936-10.83-14.729-9.497-25.639 0.634-5.184 3.447-7.508 7.597-13.295 0.829-6.465 1.508-18.102 0.95-22.791-5.533 4.916-5.79 15.104-6.648 24.692zm113 50.333c2.078 4.567 8.072 5.221 9.497 10.444 0.154 2.447-4.831 4.565-2.851 5.699 0.949-1.582 4.393-0.674 4.748-2.849 1.409-6.846-5.641-7.544-7.596-11.395-3.946-7.772 0.398-14.963 0-23.742-3.82 3.21-3.38 13.8-3.8 21.85zm14.25-11.4c-0.461-2.991 2.913-2.149 1.896-5.697-3.87-0.2-2.43 4.26-1.9 5.7zm-116.8 25.64c-1.242 1.926-5.026 1.305-5.697 3.799 2.947 2.255 6.044-1.687 8.546-2.848 0.686-3.898-1.038-10.295-3.799-7.598 2.124 0.41 0.385 4.68 0.95 6.65zm45.582-10.45c1.324 1.121 7.538 5.633 8.546 0.948-3.152-1.19-5.876-4.04-8.546-0.95zm10.445 0.95c-0.479 3.741 6.604 1.733 5.698-0.948-2.341-0.12-4.576-0.14-5.698 0.95z" fill-rule="evenodd"/>
<path clip-rule="evenodd" d="m64.109 90.213c-7.746 1.153-14.973 3.249-20.892-0.95-2.656 1.222 2.991 1.964 1.899 4.749-3.993-1.072-4.833-5.296-7.597-7.597 5.608-5.742 24.149-16.477 26.589-0.95 0.576 1.639 4.505-0.074 4.748 1.899-0.128 5.885-7.053 4.975-9.497 8.546-2.276-2.033 4.589-2.954 4.75-5.697zm-16.144-0.949c-0.525-1.69-0.487-3.944-1.898-4.748-0.386 1.829-3.682 0.75-2.849 3.798 2.287-0.388 2.064 1.734 4.747 0.95zm0.95-7.597c4.83-0.082 9.913-0.416 12.345 1.899-0.025-6.21-9.937-5.651-12.345-1.899zm11.395 6.647h1.899v-1.898h-1.899v1.898z" fill-rule="evenodd"/>
<path clip-rule="evenodd" d="m120.14 85.466c-2.175 7.579-16.003 7.699-24.69 5.697-0.159-2.059 3.368-0.43 4.748-0.95 0.127-2.341 0.145-4.575-0.949-5.697-2.338 0.829-2.126 4.205-5.696 3.798 0.016 4.098 4.728 3.5 4.748 7.598-3.191-1.557-5.407-4.093-9.498-4.749 1.184-7.047 4.69-11.769 11.396-13.295-0.28 3.202-4.208 2.755-4.748 5.699 7.03-4.958 15.716 1 20.892 3.799 0.067-1.686-5.541-5.829-8.546-7.598 0.85-2.126 7.93 5.141 12.35 5.698z" fill-rule="evenodd"/>
<metadata><rdf:RDF><cc:Work><dc:format>image/svg+xml</dc:format><dc:type rdf:resource="http://purl.org/dc/dcmitype/StillImage"/><cc:license rdf:resource="http://creativecommons.org/licenses/publicdomain/"/><dc:publisher><cc:Agent rdf:about="http://openclipart.org/"><dc:title>Openclipart</dc:title></cc:Agent></dc:publisher><dc:title>Grecian hairdressing 10</dc:title><dc:date>2009-01-06T16:32:07</dc:date><dc:description>Harmsworth's&#xD;\nUNIVERSAL&#xD;\nENCYCLOPEDIA&#xD;\nWritten by the Leading Authorities&#xD;\nin Every Branch of Knowledge and&#xD;\nedited by J. A. Hammerton&#xD;\n&#xD;\n1900</dc:description><dc:source>http://openclipart.org/detail/21014/grecian-hairdressing-10-by-johnny_automatic-21014</dc:source><dc:creator><cc:Agent><dc:title>johnny_automatic</dc:title></cc:Agent></dc:creator><dc:subject><rdf:Bag><rdf:li>ancient</rdf:li><rdf:li>clip art</rdf:li><rdf:li>clipart</rdf:li><rdf:li>externalsource</rdf:li><rdf:li>grecian</rdf:li><rdf:li>greece</rdf:li><rdf:li>greek</rdf:li><rdf:li>hair</rdf:li><rdf:li>hairdressing</rdf:li><rdf:li>head</rdf:li><rdf:li>image</rdf:li><rdf:li>media</rdf:li><rdf:li>person</rdf:li><rdf:li>png</rdf:li><rdf:li>public domain</rdf:li><rdf:li>svg</rdf:li></rdf:Bag></dc:subject></cc:Work><cc:License rdf:about="http://creativecommons.org/licenses/publicdomain/"><cc:permits rdf:resource="http://creativecommons.org/ns#Reproduction"/><cc:permits rdf:resource="http://creativecommons.org/ns#Distribution"/><cc:permits rdf:resource="http://creativecommons.org/ns#DerivativeWorks"/></cc:License></rdf:RDF></metadata></svg>
